<svg xmlns="http://www.w3.org/2000/svg" width="327" height="327" viewBox="0 0 327 327">
  <path d="M123.991072,251.244048 C123.991072,260.607143 117.394346,265.28869 104.200894,265.28869 C89.0213306,265.28869 81.4315489,260.81994 81.4315489,251.882441 C81.4315489,242.803075 88.3829377,238.263393 102.285715,238.263393 C116.755953,238.263393 123.991072,242.590278 123.991072,251.244048 Z M116.330358,152.080357 C116.330358,164.138889 111.08135,170.168155 100.583334,170.168155 C89.6597233,170.168155 84.1979177,164.209822 84.1979177,152.293155 C84.1979177,139.525298 89.6597233,133.14137 100.583334,133.14137 C105.690477,133.14137 109.591767,134.950149 112.287203,138.567709 C114.98264,142.185269 116.330358,146.689485 116.330358,152.080358 L116.330358,152.080357 Z M151.654763,136.120536 L151.654763,109.520834 C140.589287,113.634921 131.013394,115.691965 122.927084,115.691965 C115.83383,111.577877 108.031251,109.520834 99.5193462,109.520834 C87.3189495,109.520834 77.0337312,113.563989 68.6636915,121.650298 C60.2936517,129.736608 56.1086319,139.879961 56.1086319,152.080358 C56.1086319,159.173612 58.2011418,166.408731 62.3861617,173.785715 C66.5711815,181.162699 71.7847232,185.915179 78.0267866,188.043155 L78.0267866,188.681548 C72.6359136,191.093254 69.940477,197.12252 69.940477,206.769346 C69.940477,214.288195 72.8487111,219.75 78.6651792,223.154762 L78.6651792,223.793155 C62.6344252,229.042163 54.6190482,238.901786 54.6190482,253.372024 C54.6190482,259.755953 56.0376989,265.324157 58.8750004,270.076637 C61.7123018,274.829117 65.542659,278.446677 70.3660718,280.929316 C75.1894847,283.411955 80.2966275,285.220735 85.6875003,286.355655 C91.0783731,287.490576 96.8239088,288.058036 102.924107,288.058036 C134.701885,288.058036 150.590774,274.722719 150.590774,248.052084 C150.590774,238.547124 147.186012,231.524803 140.376488,226.98512 C133.566965,222.445437 124.629465,219.18254 113.563988,217.196429 C109.733631,216.487104 106.080606,215.032987 102.604911,212.834078 C99.1292168,210.635169 97.3913696,207.833334 97.3913696,204.428572 C97.3913696,198.186509 100.867064,194.498017 107.818453,193.363096 C118.742064,191.23512 127.395834,186.269842 133.779762,178.467262 C140.163691,170.664683 143.355655,161.159723 143.355655,149.952381 C143.355655,146.547619 142.64633,142.859127 141.227679,138.886905 C146.476687,137.610119 149.952381,136.687997 151.654762,136.120536 L151.654763,136.120536 Z M164.209822,225.282738 L193.363096,225.282738 C193.079366,221.452381 192.937501,215.635913 192.937501,207.833333 L192.937501,125.480655 C192.937501,118.954861 193.079366,114.060516 193.363096,110.797619 L164.209822,110.797619 C164.635418,114.060516 164.848215,119.096726 164.848215,125.90625 L164.848215,209.322917 C164.848215,216.416171 164.635418,221.736111 164.209822,225.282738 Z M272.52381,221.877976 L272.52381,196.129464 C268.267858,199.108631 263.444445,200.598214 258.053572,200.598214 C250.534723,200.598214 246.775299,194.781746 246.775299,183.14881 L246.775299,135.269345 L257.840775,135.269345 C259.117561,135.269345 260.997273,135.340278 263.479912,135.482143 C265.962551,135.624008 267.842263,135.694941 269.119049,135.694941 L269.119049,110.797619 L246.775299,110.797619 C246.775299,99.1646828 246.988096,91.9295638 247.413692,89.0922623 L217.622025,89.0922623 C218.189485,92.4970243 218.473215,96.3983139 218.473215,100.796131 L218.473215,110.797619 L205.705358,110.797619 L205.705358,135.694941 C210.812501,135.269345 213.437005,135.056548 213.57887,135.056548 C214.004465,135.056548 214.784723,135.41121 215.919644,136.120536 C217.054564,136.829861 217.905755,137.184524 218.473215,137.184524 L218.473215,137.610119 L218.04762,137.610119 L218.04762,183.787202 C218.04762,189.03621 218.224951,193.575893 218.579614,197.40625 C218.934277,201.236608 219.750001,205.244296 221.026787,209.429316 C222.303573,213.614335 224.04142,217.054563 226.240328,219.75 C228.439237,222.445437 231.524802,224.644346 235.497025,226.346726 C239.469247,228.049107 244.150795,228.900298 249.541668,228.900298 C258.621033,228.900298 266.281747,227.197917 272.523811,223.793155 L272.52381,221.877976 Z M196.767858,71.6428575 C196.767858,66.5357145 195.065477,62.0314983 191.660715,58.1302088 C188.255953,54.2289193 184.000001,52.2782744 178.892858,52.2782742 C173.785716,52.278274 169.494297,54.1934525 166.018602,58.0238097 C162.542908,61.854167 160.80506,66.3938496 160.805061,71.6428575 C160.805061,76.7500005 162.578374,81.1832842 166.125001,84.9427088 C169.671628,88.7021333 173.92758,90.5818456 178.892858,90.5818456 C183.858136,90.5818456 188.078622,88.6666671 191.554316,84.8363101 C195.030011,81.005953 196.767858,76.6081356 196.767858,71.6428579 L196.767858,71.6428575 Z M327.000001,61.428572 L327.000001,265.714286 C327.000001,282.59623 321.006201,297.031002 309.018602,309.018601 C297.031003,321.0062 282.596231,327 265.714287,327 L61.428573,327 C44.5466285,327 30.1118568,321.0062 18.1242577,309.018601 C6.13665856,297.031002 0.142859,282.59623 0.142859,265.714286 L0.142859,61.428572 C0.142859,44.5466275 6.13665856,30.1118558 18.1242577,18.1242567 C30.1118568,6.13665756 44.5466285,0.142858 61.428573,0.142858 L265.714287,0.142858 C282.596231,0.142858 297.031003,6.13665756 309.018602,18.1242567 C321.006201,30.1118558 327.000001,44.5466275 327.000001,61.428572 Z"/>
</svg>
